<?xml version="1.0" standalone="no"?>
<!DOCTYPE svg PUBLIC "-//W3C//DTD SVG 20010904//EN"
 "http://www.w3.org/TR/2001/REC-SVG-20010904/DTD/svg10.dtd">
<svg version="1.0" xmlns="http://www.w3.org/2000/svg"
 width="371.000000pt" height="371.000000pt" viewBox="0 0 371.000000 371.000000"
 preserveAspectRatio="xMidYMid meet">
<metadata>
Created by potrace 1.11, written by Peter Selinger 2001-2013
</metadata>
<g transform="translate(0.000000,371.000000) scale(0.100000,-0.100000)"
fill="#000000" stroke="none">
<path d="M197 3689 c-64 -25 -109 -60 -141 -109 -59 -90 -56 22 -53 -1740 l2
-1615 29 -58 c34 -67 95 -121 167 -148 47 -18 105 -19 1667 -16 l1617 2 59 30
c73 37 120 91 146 169 20 62 20 72 18 1671 l-3 1610 -25 50 c-32 65 -96 126
-160 153 l-52 22 -1612 -1 c-1577 0 -1612 -1 -1659 -20z"/>
</g>
</svg>
